<svg version="1" xmlns="http://www.w3.org/2000/svg" width="1292" height="1292" viewBox="0 0 969.000000 969.000000"><path d="M176.5 172.2c-.7 2.1-2.7 10.3-2.6 10.3.1 0-.5 1.8-1.5 4-.9 2.2-1.6 4.1-1.5 4.2 0 .2.1.4 0 .5-.3 1-.9 3.6-1.2 5-.2 1-.6 2.1-1 2.4-.4.4-.7 1.5-.7 2.4 0 .8-2.3 9.2-5.1 18.5-2.7 9.4-5.2 17.7-5.4 18.5-.2.8-1.9 7.1-4 14-2 6.9-3.8 13.2-4 14-.2.8-1.6 5.5-3 10.5-1.4 4.9-2.8 9.7-3 10.5-.2.8-1.3 4.6-2.5 8.5-3.2 10.6-7.9 27.2-9.9 34.6-1 3.7-2.1 7.1-2.4 7.6-.3.5-.8 2-1.1 3.4-.2 1.3-4.8 17.2-10 35.4-5.3 18.1-9.8 33.7-10 34.5-.7 2.7-6.4 22.3-8.6 29.5-1.2 3.8-2.3 7.9-2.5 9-.3 1.1-1.4 5-2.5 8.7-1.1 3.7-2.9 10.1-4.1 14-1.1 4-2.6 8.9-3.1 10.8-.6 1.9-1.1 3.6-1 3.7 0 .1-.7 2.4-1.5 5-2.4 7.7-6.8 23.2-7.9 27.8-.7 2.8-1 3.8-1.7 5.5-.4.8-2.9 9.6-5.8 19.5-2.8 9.9-5.7 20.2-6.5 23-.8 2.7-1.7 5.8-1.9 6.8-.2.9-.6 2.1-.9 2.5-.3.5-.7 2-.9 3.3-.4 2.2-4.3 15.6-7.6 26.4-.8 2.6-3.2 11-3.6 12.5-.3 1.3-3.8 13.3-5.7 19.5-1.2 3.8-2.2 7.4-2.3 8 0 .5-.6 2.8-1.3 5-.6 2.2-1.2 4.4-1.3 5-.1.5-.6 2.1-1.1 3.5-.9 2.4-8.6 28.8-9.3 32-.2.8-.4 1.6-.5 1.7-.3.3-.4.8-1.4 4.8-.4 1.6-1.1 4.1-1.6 5.5-1.5 4.8-5.4 17.5-5.6 18.5-.2 1.4-4.4 16.6-5 18.5-.3.8-.4 1.5-.3 1.5.1 0-.6 1.7-1.4 3.7-.9 2.1-1.4 3.8-1.2 3.8.3 0 0 1.2-.6 2.8-.6 1.5-1.2 3.4-1.4 4.3-.2.9-1.3 4.9-2.5 9s-2.3 7.8-2.4 8.4c-.1.5-.8 2.7-1.5 4.7-1 2.9-1 4.5 0 8 .7 2.4 1.3 4.6 1.5 5 .1.5.3 1 .4 1.3.1.3.3 1.1.4 1.7.1 1 10.5 1.4 47.8 1.6l47.7.2 1.1-4.2c.6-2.4 1.5-5.4 2-6.8.5-1.4 1.4-4.3 1.9-6.5s2.6-9.4 4.6-16c1.9-6.6 3.8-12.9 4-14 .5-1.9 1.9-6.8 7-24 2.8-9.4 18.6-64.5 19-66 .1-.5.5-1.7.8-2.5.3-.8.8-2.4 1-3.5.9-3.5 6.3-22.1 13.5-47 3.8-13.2 7.3-25.4 7.7-27 1.2-4.3 1.2-4.4 1.5-5 .1-.3.4-1 .5-1.5.1-.6.3-1.1.5-1.3.1-.1.3-.9.5-1.7.9-3.4 2.5-8.9 4.5-16 1.2-4.1 2.3-8 2.4-8.5.2-.6.6-1.7.9-2.5.3-.8.8-2.6 1.1-4 1-3.9 3.1-11.2 8.1-28 4.6-15.8 5.2-17.7 5.9-20.8.3-.9 2.1-7.3 4.1-14.2 2-6.9 3.9-13.2 4-14 .2-.8 1.8-6.2 3.5-12 4.1-13.6 8-27 8.5-29.3.2-.9.6-2.1.9-2.5.3-.5.7-1.9 1-3.3.3-1.3 1.6-6.2 3-10.9 1.3-4.7 3.9-13.7 5.6-20 1.8-6.3 3.6-12.4 4-13.5.5-1.1 1.3-3.4 1.8-5 .9-2.9.9-2.8 2.2 2.8.7 3.2 1.7 6 2.2 6.3.4.3.8 1.6.8 3s.4 3.3 1 4.3c.5 1 1.1 2.9 1.4 4.2.8 3.4 4.6 17.1 5.3 18.9.3.8.7 2.2.9 3 .2.8 1.8 6.2 3.5 12 3 10.2 4.9 16.9 8.8 30.7 1 3.8 3.7 13.1 6 20.8 2.3 7.7 4.3 14.9 4.6 16 .2 1.1 1.5 5.6 2.9 9.9 1.4 4.4 2.3 8.3 2 8.7-.2.4 0 .9.4 1.1.5.1 1.6 3 2.4 6.3 3.4 12.7 4.9 18.1 5.5 19.5.3.8.7 1.9.8 2.5.2.5 1 3.6 2 6.9.9 3.2 1.8 6.4 1.9 7 .2.6 1.2 4.3 2.4 8.1 1.2 3.9 2.3 7.9 2.5 9 .2 1.1.7 2.7 1 3.5.4.8 2.3 7.1 4.2 14 6 21.1 7.5 26.4 8 28 .2.8 1.3 4.6 2.5 8.5 1.2 3.8 2.4 8 2.7 9.4.2 1.3.9 3.4 1.5 4.5.6 1.2 1.1 2.2 1 2.3-.1.2-.2.4-.1.5 0 .2.2 1 .4 1.8.1.8 3.7 13.4 8 28 9.5 32.9 10.4 36 11 38.6.3 1.1 1.4 4.9 2.5 8.3 1.8 5.8 3.7 12.5 4.6 16.1.1.8 2.4 8.5 4.9 17 2.6 8.5 4.8 16.2 5 17 .2.8 1.1 4 2 7 .9 3 1.8 6.2 2 7 .2.8 1.1 4 2 7 .9 3 1.7 5.9 1.9 6.5.1.5.6 2 1 3.2l.7 2.3h94.8l2.1-7.3c1.2-3.9 2.3-7.9 2.6-8.7.3-.8.8-2.4 1-3.5.2-1.1 2.2-8.1 4.4-15.5s4.2-14.2 4.4-15c.3-.8 1.8-6.2 3.4-12 1.7-5.8 4.6-16.1 6.6-23 1.9-6.9 4-13.9 4.5-15.5 1.2-3.7 14.1-48.4 14.6-50.5.2-.8.4-1.5.5-1.5.1 0 .3-.8.5-1.7.2-1 1.3-4.9 2.4-8.8 3.7-12.4 11.5-39.5 17.6-61 2.4-8.5 4.9-16.9 5.5-18.7.6-1.8 1.3-4 1.5-5 .2-1 2.7-9.7 5.5-19.3 2.8-9.6 6.9-23.8 9.1-31.5 2.2-7.7 4.4-15.4 5-17 1-3.2 12.7-43.6 13.6-47 .3-1.1 1.7-5.8 3-10.4 1.4-4.7 2.6-8.9 2.7-9.5.5-2.2 2.7-10.2 3.3-11.6.3-.8.7-2 .8-2.5.2-.6 1.3-4.4 2.5-8.5s2.4-8.2 2.5-9c.2-.8.4-1.6.5-1.8.2-.1.3-.5.4-1 .2-.4.8-2.7 1.6-5.2.7-2.5 1.4-5.2 1.5-6 .1-.8.6-2.4 1.2-3.5.9-1.6 1.4-.9 3.1 5.1 8.6 29.1 12.4 42.2 12.8 43.9.3 1.1.7 2.7.9 3.5.2.8.4 1.5.5 1.5.1 0 .3.7.5 1.5.1.8 1.7 6.2 3.5 12 1.7 5.8 3.3 11.4 3.6 12.5.2 1.1 2.2 8.1 4.4 15.5 2.3 7.4 4.2 14.2 4.4 15 .5 1.7 7.9 27.7 10.2 35.5.8 2.7 1.7 5.7 1.9 6.5.2.8 1.5 5.3 2.8 10 1.4 4.7 3.2 11 4 14 .8 3 2.7 9.3 4.2 14 1.4 4.7 2.8 9.2 3 10 .7 3.3 2.6 10.2 4.5 16.1 1.1 3.4 2.2 7.2 2.5 8.3.6 2.7 2 7.6 9 31.6 3.1 10.7 5.8 19.9 6 20.5.1.5.4 1.7.8 2.5.5 1.4 3 10.5 3.3 12.2.1.5.2.9.4 1 .1.2.3 1 .5 1.8s1.7 6 3.3 11.5c1.6 5.5 3.2 10.9 3.5 12 .3 1.1 4.2 14.6 8.7 30 4.4 15.4 8.3 28.7 8.5 29.5 1.9 7 13.5 47.1 14.3 49 .5 1.4 1 2.9 1.1 3.5.1.7 16.7 1 47.7 1h47.7l2.4-8.5c1.3-4.7 3-10.8 3.8-13.5.9-2.8 1.7-5.9 2-7 .2-1.1 1.4-5.2 2.5-9 1.2-3.9 2.3-7.7 2.5-8.5.3-.8 1.8-6.2 3.5-12s3.3-11.2 3.5-12c.1-.8 2-7.1 4-14 3.8-13 8.2-28 9.2-31.5.3-1.1 1.7-5.8 3-10.5 1.4-4.7 3.3-11.4 4.3-15 2.6-9.4 6.1-21.3 6.5-22.8.3-.7.4-1.3.4-1.5 0-.1.7-2.5 1.6-5.2 1.4-4.6 8.4-28.7 8.9-31 .2-.6.5-1.7.8-2.5.7-1.8 5.8-19.6 6.3-21.9.2-.9 1.1-3.9 1.9-6.6 6-20.8 10.8-37.2 11.1-38.5.2-.8 1.8-6.2 3.5-12 1.8-5.8 3.4-11.2 3.6-12 1-4.2 9.4-33.2 9.8-33.9.3-.4.7-1.8 1-3.2.6-2.8 1.9-7.5 3.9-14.4 2.6-8.5 7.9-26.9 8.2-28.5.2-.8 2.5-8.5 5-17 2.6-8.5 4.8-16.4 5.1-17.5.2-1.1 1.3-4.9 2.4-8.5 2.6-8.7 10-34.1 10.5-36 .2-.8 1.5-5.3 2.8-10 1.3-4.7 2.7-9.4 3-10.5.3-1.1 1.8-6.1 3.2-11 4.1-13.9 5.5-18.9 6-20.5.2-.8 1.8-6.2 3.5-12s3.3-11.2 3.5-12c.2-.8 2-7.1 4-14s3.7-13 3.8-13.5c.2-.6.6-1.6 1-2.3.5-.6.6-1.2.4-1.2-.3 0 .2-2.1 1-4.8 1.8-5.6 4.2-14.1 4.8-16.3.2-.9 1.8-6.3 3.5-12 5.3-17.4 5.4-18.2 2.2-26.9-.3-.8-.6-2-.6-2.5-.1-.6-16.9-1.1-47.8-1.3l-47.7-.2-1.1 4.2c-.6 2.4-1.8 6.2-2.5 8.5-.8 2.3-1.6 5.3-1.9 6.7-.2 1.3-.9 3.3-1.5 4.4-.6 1.1-.8 2.2-.5 2.5.3.3-.2 1.9-1.1 3.6-.8 1.7-1.3 3.1-1.1 3.1.3 0-.1 1.8-.9 4s-1.2 4-.8 4c.3 0 .1.6-.5 1.3-.6.7-1.3 2.4-1.6 3.7-.8 4.1-1.3 5.9-6.1 22-2.5 8.5-4.7 16.4-5 17.5-.6 2.8-7.5 26.6-8.2 28.5-.3.8-.8 2.2-1 3-.4 1.6-.4 1.5-2.3 8-.7 2.5-1.4 4.9-1.6 5.5-.1.5-1.4 5-2.8 10-1.5 4.9-2.9 9.7-3.1 10.5-.2.8-.8 2.8-1.5 4.5-.6 1.6-1.1 3.2-1.1 3.5 0 .3-.5 2.3-1.1 4.5-.6 2.2-1.3 4.8-1.5 5.7-.1 1-1.1 4.3-2.2 7.5-1 3.2-2.9 9.6-4.2 14.3-1.2 4.7-2.7 9.1-3.2 9.7-.5.7-.7 1.3-.4 1.3.3 0-.3 3-1.4 6.7-2.2 7.5-2.2 7.6-4.3 14.8-.8 2.7-2.5 8.8-3.9 13.5-1.3 4.7-2.7 9.4-3 10.5-.3 1.1-1.7 5.8-3.1 10.5-1.3 4.7-4.9 17-8 27.5-3 10.4-5.9 20.5-6.5 22.3-.5 1.8-1.1 3.6-1.2 4-.1.4-.3 1.1-.5 1.7-.7 2.6-5.5 19.2-5.8 20.5-.7 2.6-4.3 15-8.1 28-2 6.9-3.8 12.9-3.9 13.5-.1.5-.6 2.6-1 4.5-.5 1.9-1.1 3.9-1.4 4.5-.4.5-.8 2.1-1 3.5-.2 1.3-.6 2.7-1 3-.4.3-.9 1.4-1 2.5-.4 1.7-3.3 12.6-8.8 31.5-2.9 10.2-2.7 10.3-7.4-6.1-2.4-8.5-4.8-16-5.3-16.7-.5-.6-.7-1.2-.4-1.2.3 0 .1-1.5-.4-3.3-.6-1.7-1.2-3.9-1.4-4.7-.2-.8-1.6-5.6-3.1-10.5-1.4-5-2.7-9.5-2.9-10-.1-.6-.4-1.7-.7-2.5-.3-.8-1.8-6-3.3-11.5-1.5-5.5-3-10.7-3.3-11.5-.3-.8-.7-2.2-.8-3-.3-1.2-13.6-46.9-16.4-56.3-.5-1.5-1-3.1-1.1-3.5-.1-.4-.3-1.2-.5-1.7-.1-.6-3.9-13.8-8.4-29.5-4.4-15.7-8.3-29.2-8.7-30-.3-.8-.8-2.4-1-3.5-.6-2.8-.9-3.8-1.6-5.5-.3-.8-1.1-3.5-1.7-6-.6-2.5-1.5-5.6-1.9-7-.5-1.4-1.4-4.5-2.1-7-.7-2.5-1.6-5.6-2.1-7-.5-1.4-1-3.4-1.2-4.5-.2-1.1-.7-2.7-1-3.5-.9-2.1-9.7-32.9-10.3-35.9-.3-1.4-.7-2.8-1-3.3-.3-.4-.7-1.6-.9-2.5-.2-1-1.6-5.9-3-10.8-1.5-5-3-10.4-3.5-12-.5-1.7-1.8-6.2-2.9-10-1.2-3.9-2.3-7.7-2.5-8.5-1.9-7.1-3.7-13.3-5-17.5-3.7-11.8-6-20.1-5.7-20.9.1-.4-.3-1.3-.8-2-.5-.6-1.1-2.5-1.4-4.1-.3-1.7-1.2-4.9-2.1-7.3-.8-2.3-1.3-4.2-1.1-4.2.3 0-.2-1.7-1-3.8-1.5-4-3.5-11.4-3.3-12.2.1-.3-.4-1.4-1-2.6-.6-1.1-1.3-3.4-1.6-4.9-.3-1.6-1.3-5.4-2.2-8.5-.9-3-1.8-6.1-2-6.8-.3-1-10.4-1.2-48-1-41.5.3-47.7.5-48 1.8-.1.8-1.9 7.1-3.9 14s-3.9 13.2-4.1 14c-.2.8-2.2 7.8-4.5 15.5s-4.6 15.8-5.1 18c-.5 2.2-1.4 4.8-1.9 5.8s-.7 2.2-.4 2.7c.4.6.1 1-.6 1s-1 .3-.6.6c.3.3-.1 2.3-.8 4.5-.8 2.2-1.5 4.3-1.5 4.7 0 .4-.6 2.5-1.2 4.7s-1.2 4.6-1.4 5.3c-.1.6-1.4 4.9-2.8 9.5-1.4 4.5-5.9 19.9-10 34.2-4.1 14.3-8.1 28.1-8.9 30.7-.8 2.6-1.2 4.9-.9 5.2.3.4.1.6-.4.6s-1 .8-1.1 1.7c-.1 1-2.3 9-4.8 17.7-2.6 8.8-4.8 16.7-5 17.5-.2.9-1.8 6.3-3.5 12.1s-3.3 11.2-3.5 12c-.2.8-2 6.9-4 13.5s-3.8 12.7-4 13.6c-.6 2.9-10.6 37.3-11.2 38.9-.3.8-.7 1.9-.7 2.5-.1.5-.8 3-1.5 5.5s-1.5 5.2-1.6 6c-.2.8-.4 1.6-.5 1.7-.2.2-.3.6-.4 1-1 3.8-3 10.9-4.5 15.8-3.6 11.6-5.3 17.4-5.1 17.7.1.2-.4 1.6-1 3.3-.7 1.6-1.3 3.7-1.5 4.5-.2.8-1.7 6.4-3.5 12.5-1.8 6-3.4 11.7-3.6 12.5-.8 3.4-14.6 50.5-14.8 50.8-.3.2-4.4-13.5-6.1-19.8-.2-.8-1.8-6.2-3.5-12s-3.3-11.2-3.5-12c-.2-.8-2-6.9-3.9-13.5-7.8-26.9-16.9-58.4-18.6-64.5-1-3.6-2.8-9.9-4-14-1.2-4.1-2.4-8.2-2.6-9-.2-.8-2.9-10.1-5.9-20.5-3.1-10.5-5.8-19.5-5.9-20-.1-.6-.8-3-1.5-5.5-.8-2.5-1.4-5-1.6-5.5-.1-.6-.4-1.7-.8-2.5-.3-.8-1.1-3.8-1.8-6.5-.6-2.8-1.5-5.5-1.8-6-.3-.6-.7-1.7-.8-2.5-.1-.8-3.2-11.6-6.8-24-3.6-12.4-7.3-25-8.1-28-.9-3-2.5-8.4-3.5-12-1.1-3.6-2.4-8.1-2.9-10-1-3.6-3.4-11.9-6.5-22.2-.9-3.2-1.8-6.3-1.9-7-.2-.7-1.1-3.9-2-7.2-1-3.2-1.9-6.4-2-7-.2-.6-1.1-3.8-2.1-7.1s-2-6.5-2.1-7c-.2-.6-1.9-6.6-3.9-13.5-5-17.2-5.2-17.7-7-24.5-.9-3.3-1.9-6.7-2.2-7.5-.3-.8-.8-2.3-1-3.3-.1-1-1.3-4.8-2.5-8.5s-2.2-7.2-2.3-7.7c0-1-1.7-6.8-5.1-18.3l-1.6-5.2h-47.4c-37.1 0-47.6.3-47.9 1.2z"/></svg>