<?xml version="1.0" standalone="no"?>
<!DOCTYPE svg PUBLIC "-//W3C//DTD SVG 20010904//EN"
 "http://www.w3.org/TR/2001/REC-SVG-20010904/DTD/svg10.dtd">
<svg version="1.0" xmlns="http://www.w3.org/2000/svg"
 width="969.000000pt" height="969.000000pt" viewBox="0 0 969.000000 969.000000"
 preserveAspectRatio="xMidYMid meet">
<metadata>
Created by potrace 1.11, written by Peter Selinger 2001-2013
</metadata>
<g transform="translate(0.000000,969.000000) scale(0.100000,-0.100000)"
fill="#000000" stroke="none">
<path d="M1765 7968 c-7 -21 -27 -103 -26 -103 1 0 -5 -18 -15 -40 -9 -22 -16
-41 -15 -42 0 -2 1 -4 0 -5 -3 -10 -9 -36 -12 -50 -2 -10 -6 -21 -10 -24 -4
-4 -7 -15 -7 -24 0 -8 -23 -92 -51 -185 -27 -94 -52 -177 -54 -185 -2 -8 -19
-71 -40 -140 -20 -69 -38 -132 -40 -140 -2 -8 -16 -55 -30 -105 -14 -49 -28
-97 -30 -105 -2 -8 -13 -46 -25 -85 -32 -106 -79 -272 -99 -346 -10 -37 -21
-71 -24 -76 -3 -5 -8 -20 -11 -34 -2 -13 -48 -172 -100 -354 -53 -181 -98
-337 -100 -345 -7 -27 -64 -223 -86 -295 -12 -38 -23 -79 -25 -90 -3 -11 -14
-50 -25 -87 -11 -37 -29 -101 -41 -140 -11 -40 -26 -89 -31 -108 -6 -19 -11
-36 -10 -37 0 -1 -7 -24 -15 -50 -24 -77 -68 -232 -79 -278 -7 -28 -10 -38
-17 -55 -4 -8 -29 -96 -58 -195 -28 -99 -57 -202 -65 -230 -8 -27 -17 -58 -19
-68 -2 -9 -6 -21 -9 -25 -3 -5 -7 -20 -9 -33 -4 -22 -43 -156 -76 -264 -8 -26
-32 -110 -36 -125 -3 -13 -38 -133 -57 -195 -12 -38 -22 -74 -23 -80 0 -5 -6
-28 -13 -50 -6 -22 -12 -44 -13 -50 -1 -5 -6 -21 -11 -35 -9 -24 -86 -288 -93
-320 -2 -8 -4 -16 -5 -17 -3 -3 -4 -8 -14 -48 -4 -16 -11 -41 -16 -55 -15 -48
-54 -175 -56 -185 -2 -14 -44 -166 -50 -185 -3 -8 -4 -15 -3 -15 1 0 -6 -17
-14 -37 -9 -21 -14 -38 -12 -38 3 0 0 -12 -6 -28 -6 -15 -12 -34 -14 -43 -2
-9 -13 -49 -25 -90 -12 -41 -23 -78 -24 -84 -1 -5 -8 -27 -15 -47 -10 -29 -10
-45 0 -80 7 -24 13 -46 15 -50 1 -5 3 -10 4 -13 1 -3 3 -11 4 -17 1 -10 105
-14 478 -16 l477 -2 11 42 c6 24 15 54 20 68 5 14 14 43 19 65 5 22 26 94 46
160 19 66 38 129 40 140 5 19 19 68 70 240 28 94 186 645 190 660 1 5 5 17 8
25 3 8 8 24 10 35 9 35 63 221 135 470 38 132 73 254 77 270 12 43 12 44 15
50 1 3 4 10 5 15 1 6 3 11 5 13 1 1 3 9 5 17 9 34 25 89 45 160 12 41 23 80
24 85 2 6 6 17 9 25 3 8 8 26 11 40 10 39 31 112 81 280 46 158 52 177 59 208
3 9 21 73 41 142 20 69 39 132 40 140 2 8 18 62 35 120 41 136 80 270 85 293
2 9 6 21 9 25 3 5 7 19 10 33 3 13 16 62 30 109 13 47 39 137 56 200 18 63 36
124 40 135 5 11 13 34 18 50 9 29 9 28 22 -28 7 -32 17 -60 22 -63 4 -3 8 -16
8 -30 0 -14 4 -33 10 -43 5 -10 11 -29 14 -42 8 -34 46 -171 53 -189 3 -8 7
-22 9 -30 2 -8 18 -62 35 -120 30 -102 49 -169 88 -307 10 -38 37 -131 60
-208 23 -77 43 -149 46 -160 2 -11 15 -56 29 -99 14 -44 23 -83 20 -87 -2 -4
0 -9 4 -11 5 -1 16 -30 24 -63 34 -127 49 -181 55 -195 3 -8 7 -19 8 -25 2 -5
10 -36 20 -69 9 -32 18 -64 19 -70 2 -6 12 -43 24 -81 12 -39 23 -79 25 -90 2
-11 7 -27 10 -35 4 -8 23 -71 42 -140 60 -211 75 -264 80 -280 2 -8 13 -46 25
-85 12 -38 24 -80 27 -94 2 -13 9 -34 15 -45 6 -12 11 -22 10 -23 -1 -2 -2 -4
-1 -5 0 -2 2 -10 4 -18 1 -8 37 -134 80 -280 95 -329 104 -360 110 -386 3 -11
14 -49 25 -83 18 -58 37 -125 46 -161 1 -8 24 -85 49 -170 26 -85 48 -162 50
-170 2 -8 11 -40 20 -70 9 -30 18 -62 20 -70 2 -8 11 -40 20 -70 9 -30 17 -59
19 -65 1 -5 6 -20 10 -32 l7 -23 474 0 474 0 21 73 c12 39 23 79 26 87 3 8 8
24 10 35 2 11 22 81 44 155 22 74 42 142 44 150 3 8 18 62 34 120 17 58 46
161 66 230 19 69 40 139 45 155 12 37 141 484 146 505 2 8 4 15 5 15 1 0 3 8
5 17 2 10 13 49 24 88 37 124 115 395 176 610 24 85 49 169 55 187 6 18 13 40
15 50 2 10 27 97 55 193 28 96 69 238 91 315 22 77 44 154 50 170 10 32 127
436 136 470 3 11 17 58 30 104 14 47 26 89 27 95 5 22 27 102 33 116 3 8 7 20
8 25 2 6 13 44 25 85 12 41 24 82 25 90 2 8 4 16 5 18 2 1 3 5 4 10 2 4 8 27
16 52 7 25 14 52 15 60 1 8 6 24 12 35 9 16 14 9 31 -51 86 -291 124 -422 128
-439 3 -11 7 -27 9 -35 2 -8 4 -15 5 -15 1 0 3 -7 5 -15 1 -8 17 -62 35 -120
17 -58 33 -114 36 -125 2 -11 22 -81 44 -155 23 -74 42 -142 44 -150 5 -17 79
-277 102 -355 8 -27 17 -57 19 -65 2 -8 15 -53 28 -100 14 -47 32 -110 40
-140 8 -30 27 -93 42 -140 14 -47 28 -92 30 -100 7 -33 26 -102 45 -161 11
-34 22 -72 25 -83 6 -27 20 -76 90 -316 31 -107 58 -199 60 -205 1 -5 4 -17 8
-25 5 -14 30 -105 33 -122 1 -5 2 -9 4 -10 1 -2 3 -10 5 -18 2 -8 17 -60 33
-115 16 -55 32 -109 35 -120 3 -11 42 -146 87 -300 44 -154 83 -287 85 -295
19 -70 135 -471 143 -490 5 -14 10 -29 11 -35 1 -7 167 -10 477 -10 l477 0 24
85 c13 47 30 108 38 135 9 28 17 59 20 70 2 11 14 52 25 90 12 39 23 77 25 85
3 8 18 62 35 120 17 58 33 112 35 120 1 8 20 71 40 140 38 130 82 280 92 315
3 11 17 58 30 105 14 47 33 114 43 150 26 94 61 213 65 228 3 7 4 13 4 15 0 1
7 25 16 52 14 46 84 287 89 310 2 6 5 17 8 25 7 18 58 196 63 219 2 9 11 39
19 66 60 208 108 372 111 385 2 8 18 62 35 120 18 58 34 112 36 120 10 42 94
332 98 339 3 4 7 18 10 32 6 28 19 75 39 144 26 85 79 269 82 285 2 8 25 85
50 170 26 85 48 164 51 175 2 11 13 49 24 85 26 87 100 341 105 360 2 8 15 53
28 100 13 47 27 94 30 105 3 11 18 61 32 110 41 139 55 189 60 205 2 8 18 62
35 120 17 58 33 112 35 120 2 8 20 71 40 140 20 69 37 130 38 135 2 6 6 16 10
23 5 6 6 12 4 12 -3 0 2 21 10 48 18 56 42 141 48 163 2 9 18 63 35 120 53
174 54 182 22 269 -3 8 -6 20 -6 25 -1 6 -169 11 -478 13 l-477 2 -11 -42 c-6
-24 -18 -62 -25 -85 -8 -23 -16 -53 -19 -67 -2 -13 -9 -33 -15 -44 -6 -11 -8
-22 -5 -25 3 -3 -2 -19 -11 -36 -8 -17 -13 -31 -11 -31 3 0 -1 -18 -9 -40 -8
-22 -12 -40 -8 -40 3 0 1 -6 -5 -13 -6 -7 -13 -24 -16 -37 -8 -41 -13 -59 -61
-220 -25 -85 -47 -164 -50 -175 -6 -28 -75 -266 -82 -285 -3 -8 -8 -22 -10
-30 -4 -16 -4 -15 -23 -80 -7 -25 -14 -49 -16 -55 -1 -5 -14 -50 -28 -100 -15
-49 -29 -97 -31 -105 -2 -8 -8 -28 -15 -45 -6 -16 -11 -32 -11 -35 0 -3 -5
-23 -11 -45 -6 -22 -13 -48 -15 -57 -1 -10 -11 -43 -22 -75 -10 -32 -29 -96
-42 -143 -12 -47 -27 -91 -32 -97 -5 -7 -7 -13 -4 -13 3 0 -3 -30 -14 -67 -22
-75 -22 -76 -43 -148 -8 -27 -25 -88 -39 -135 -13 -47 -27 -94 -30 -105 -3
-11 -17 -58 -31 -105 -13 -47 -49 -170 -80 -275 -30 -104 -59 -205 -65 -223
-5 -18 -11 -36 -12 -40 -1 -4 -3 -11 -5 -17 -7 -26 -55 -192 -58 -205 -7 -26
-43 -150 -81 -280 -20 -69 -38 -129 -39 -135 -1 -5 -6 -26 -10 -45 -5 -19 -11
-39 -14 -45 -4 -5 -8 -21 -10 -35 -2 -13 -6 -27 -10 -30 -4 -3 -9 -14 -10 -25
-4 -17 -33 -126 -88 -315 -29 -102 -27 -103 -74 61 -24 85 -48 160 -53 167 -5
6 -7 12 -4 12 3 0 1 15 -4 33 -6 17 -12 39 -14 47 -2 8 -16 56 -31 105 -14 50
-27 95 -29 100 -1 6 -4 17 -7 25 -3 8 -18 60 -33 115 -15 55 -30 107 -33 115
-3 8 -7 22 -8 30 -3 12 -136 469 -164 563 -5 15 -10 31 -11 35 -1 4 -3 12 -5
17 -1 6 -39 138 -84 295 -44 157 -83 292 -87 300 -3 8 -8 24 -10 35 -6 28 -9
38 -16 55 -3 8 -11 35 -17 60 -6 25 -15 56 -19 70 -5 14 -14 45 -21 70 -7 25
-16 56 -21 70 -5 14 -10 34 -12 45 -2 11 -7 27 -10 35 -9 21 -97 329 -103 359
-3 14 -7 28 -10 33 -3 4 -7 16 -9 25 -2 10 -16 59 -30 108 -15 50 -30 104 -35
120 -5 17 -18 62 -29 100 -12 39 -23 77 -25 85 -19 71 -37 133 -50 175 -37
118 -60 201 -57 209 1 4 -3 13 -8 20 -5 6 -11 25 -14 41 -3 17 -12 49 -21 73
-8 23 -13 42 -11 42 3 0 -2 17 -10 38 -15 40 -35 114 -33 122 1 3 -4 14 -10
26 -6 11 -13 34 -16 49 -3 16 -13 54 -22 85 -9 30 -18 61 -20 68 -3 10 -104
12 -480 10 -415 -3 -477 -5 -480 -18 -1 -8 -19 -71 -39 -140 -20 -69 -39 -132
-41 -140 -2 -8 -22 -78 -45 -155 -23 -77 -46 -158 -51 -180 -5 -22 -14 -48
-19 -58 -5 -10 -7 -22 -4 -27 4 -6 1 -10 -6 -10 -7 0 -10 -3 -6 -6 3 -3 -1
-23 -8 -45 -8 -22 -15 -43 -15 -47 0 -4 -6 -25 -12 -47 -6 -22 -12 -46 -14
-53 -1 -6 -14 -49 -28 -95 -14 -45 -59 -199 -100 -342 -41 -143 -81 -281 -89
-307 -8 -26 -12 -49 -9 -52 3 -4 1 -6 -4 -6 -5 0 -10 -8 -11 -17 -1 -10 -23
-90 -48 -177 -26 -88 -48 -167 -50 -175 -2 -9 -18 -63 -35 -121 -17 -58 -33
-112 -35 -120 -2 -8 -20 -69 -40 -135 -20 -66 -38 -127 -40 -136 -6 -29 -106
-373 -112 -389 -3 -8 -7 -19 -7 -25 -1 -5 -8 -30 -15 -55 -7 -25 -15 -52 -16
-60 -2 -8 -4 -16 -5 -17 -2 -2 -3 -6 -4 -10 -10 -38 -30 -109 -45 -158 -36
-116 -53 -174 -51 -177 1 -2 -4 -16 -10 -33 -7 -16 -13 -37 -15 -45 -2 -8 -17
-64 -35 -125 -18 -60 -34 -117 -36 -125 -8 -34 -146 -505 -148 -508 -3 -2 -44
135 -61 198 -2 8 -18 62 -35 120 -17 58 -33 112 -35 120 -2 8 -20 69 -39 135
-78 269 -169 584 -186 645 -10 36 -28 99 -40 140 -12 41 -24 82 -26 90 -2 8
-29 101 -59 205 -31 105 -58 195 -59 200 -1 6 -8 30 -15 55 -8 25 -14 50 -16
55 -1 6 -4 17 -8 25 -3 8 -11 38 -18 65 -6 28 -15 55 -18 60 -3 6 -7 17 -8 25
-1 8 -32 116 -68 240 -36 124 -73 250 -81 280 -9 30 -25 84 -35 120 -11 36
-24 81 -29 100 -10 36 -34 119 -65 222 -9 32 -18 63 -19 70 -2 7 -11 39 -20
72 -10 32 -19 64 -20 70 -2 6 -11 38 -21 71 -10 33 -20 65 -21 70 -2 6 -19 66
-39 135 -50 172 -52 177 -70 245 -9 33 -19 67 -22 75 -3 8 -8 23 -10 33 -1 10
-13 48 -25 85 -12 37 -22 72 -23 77 0 10 -17 68 -51 183 l-16 52 -474 0 c-371
0 -476 -3 -479 -12z"/>
</g>
</svg>
